<svg width="205" height="205" viewBox="0 0 205 205" fill="none" xmlns="http://www.w3.org/2000/svg">
<rect width="205" height="205" fill="#1E1E1E"/>
<path fill-rule="evenodd" clip-rule="evenodd" d="M102.3 37H83.6912C81.2163 37 79.2173 39.0216 79.2173 41.4713C79.2173 43.921 81.2401 45.9426 83.6912 45.9426H126.335C134.593 45.9426 142.446 49.2248 148.276 55.0755C154.106 60.9025 157.414 68.7273 157.414 77.004C157.414 85.2807 154.13 93.1055 148.276 98.9325C142.446 104.759 134.617 108.065 126.335 108.065H125.883V94.5801C125.883 90.8936 124.408 87.3736 121.79 84.7574C119.172 82.1413 115.65 80.6667 111.962 80.6667C108.273 80.6667 104.751 82.1413 102.158 84.7574H102.134C99.5161 87.3974 98.0407 90.8936 98.0407 94.5801V154.087C98.0407 155.395 97.5172 156.655 96.5891 157.583C95.661 158.51 94.4236 159.034 93.091 159.034C91.7583 159.034 90.5209 158.534 89.5928 157.583H89.569C88.6409 156.631 88.1174 155.371 88.1174 154.063V73.7456C88.1174 70.0592 86.642 66.5392 84.0243 63.923C81.4067 61.3068 77.8847 59.8322 74.1962 59.8322C70.5077 59.8322 66.9857 61.3068 64.3919 63.923H64.3681C61.7504 66.563 60.275 70.0592 60.275 73.7456V108.042H44.4738C41.9989 108.042 40 110.039 40 112.513C40 114.986 42.0227 116.984 44.4738 116.984H64.8202C67.3189 116.984 69.294 114.963 69.294 112.513V73.7456C69.294 72.4375 69.7938 71.177 70.7456 70.2495H70.7694C71.6975 69.2981 72.935 68.7749 74.2676 68.7749C75.6002 68.7749 76.8139 69.2981 77.7657 70.2257C78.6938 71.1532 79.2173 72.39 79.2173 73.7219V154.063C79.2173 157.749 80.6928 161.245 83.3104 163.862H83.3342C85.9519 166.478 89.45 167.976 93.1385 167.976C96.8271 167.976 100.349 166.502 102.967 163.885C105.584 161.269 107.06 157.749 107.06 154.063V94.5801C107.06 93.272 107.559 92.0114 108.511 91.0839H108.535C109.463 90.1325 110.724 89.6093 112.033 89.6093C113.342 89.6093 114.58 90.1325 115.531 91.0601C116.46 91.9877 116.983 93.2244 116.983 94.5563V112.513C116.983 115.01 119.006 116.984 121.457 116.984H126.383C137.044 116.984 147.134 112.775 154.654 105.235C162.173 97.7195 166.409 87.6115 166.409 76.9802C166.409 66.3489 162.197 56.2409 154.654 48.7253C147.11 41.2097 136.972 37 126.335 37H102.3Z" fill="#C96567"/>
</svg>
